# xmcd
#
# Track frame offsets: 
#        150
#        32943
#        71504
#        93405
#        110613
#        146912
#        170135
#        224188
#
# Disc length: 3213 seconds
#
# Revision: 0
# Processed by: cddbd v1.5.2PL0 Copyright (c) Steve Scherf et al.
# Submitted via: ExactAudioCopyFreeDBPlugin 1.0
#
DISCID=840c8b08
DTITLE=Brandon Lane - That Kind of Love
DYEAR=2013
DGENRE=Blues
TTITLE0=That Kind of Love
TTITLE1=Stormy Monday
TTITLE2=Mixed Up
TTITLE3=Cradle Rock
TTITLE4=Trouble
TTITLE5=Bird On a Wire
TTITLE6=Mountain Time
TTITLE7=Good Love Is On the Way
EXTD=
EXTT0=
EXTT1=
EXTT2=
EXTT3=
EXTT4=
EXTT5=
EXTT6=
EXTT7=
PLAYORDER=
